<svg width="167" height="56" viewBox="0 0 167 56" fill="none" xmlns="http://www.w3.org/2000/svg">
<rect width="167" height="56" fill="#DEDEDE"/>
<path d="M166.923 56V0H0V56H166.923Z" fill="#009848"/>
<path fill-rule="evenodd" clip-rule="evenodd" d="M66.8949 10.992C66.8949 7.53729 69.4859 4.94629 73.1761 4.94629C74.8415 4.94629 76.142 5.38421 76.4442 5.48598L76.4737 5.49589V7.0662C76.3167 6.98768 74.8249 6.35956 73.2546 6.35956C70.5851 6.35956 68.6222 8.24392 68.6222 10.7564C68.6222 13.3474 70.5066 15.1532 73.2546 15.1532C75.0605 15.1532 76.3167 14.6822 76.3952 14.6036V16.2525C76.3167 16.331 75.0604 16.7236 73.0976 16.7236C68.7792 16.7236 66.8949 13.4259 66.8949 10.992ZM15.1534 5.10333H13.5831V11.8556C13.5831 14.4466 12.0914 15.2318 10.2855 15.2318C8.08708 15.2318 6.98787 14.0541 6.98787 11.8556V5.10333H5.26054V12.1697C5.26054 15.3103 7.45896 16.7236 10.207 16.7236C13.3476 16.7236 15.1534 14.9962 15.1534 12.1697V5.10333ZM27.2448 5.10333H25.6745V13.9755L18.7651 5.10333H17.4304V16.6451H18.9222V7.77285L25.8315 16.6451H27.2448V5.10333ZM29.9143 5.10333H31.5631V16.6451H29.9143V5.10333ZM41.456 5.10333H33.1334V6.51661H36.5096V16.6451H38.1584V6.51661H41.456V5.10333ZM42.9478 5.10333H49.543V6.51661H44.5966V9.97127H49.3075V11.3845H44.5966V15.1533H49.6216V16.6451H42.9478V5.10333ZM55.5887 5.10333H51.7415V16.6451H55.5887C59.593 16.6451 61.7129 13.8185 61.7129 10.9135C61.7129 8.16542 59.8285 5.10333 55.5887 5.10333ZM53.3903 15.1533V6.51661H55.3532C58.4938 6.51661 59.9856 8.558 59.9856 10.8349C59.9856 13.2689 58.3367 15.1533 55.3532 15.1533H53.3903ZM91.7057 5.10333H93.3545V15.1533H98.1439V16.6451H91.7057V5.10333ZM115.653 5.10333H112.12V16.6451H113.768V11.6201H115.81L118.95 16.6451H120.913C120.128 15.5458 117.459 11.2275 117.459 11.2275C117.694 11.149 119.421 10.5209 119.421 8.32245C119.421 6.28106 118.008 5.10333 115.653 5.10333ZM113.768 10.2068V6.51661H115.417C116.988 6.51661 117.694 7.30176 117.694 8.40097C117.694 9.34315 117.145 10.2853 115.417 10.2853H113.768V10.2068ZM83.4616 4.94629C80.0854 4.94629 77.3374 7.6158 77.3374 10.8349C77.3374 14.1326 80.0069 16.7236 83.4616 16.7236C86.8377 16.7236 89.5857 14.054 89.5857 10.8349C89.5857 7.6158 86.8377 4.94629 83.4616 4.94629ZM83.4616 15.2318C81.0276 15.2318 79.0647 13.2689 79.0647 10.8349C79.0647 8.40095 81.0276 6.43808 83.4616 6.43808C85.8955 6.43808 87.8584 8.40095 87.8584 10.8349C87.8584 13.2689 85.9741 15.2318 83.4616 15.2318ZM98.0654 10.8349C98.0654 7.6158 100.813 4.94629 104.19 4.94629C107.566 4.94629 110.235 7.6158 110.314 10.8349C110.314 14.054 107.566 16.7236 104.19 16.7236C100.735 16.7236 98.0654 14.1326 98.0654 10.8349ZM99.7927 10.8349C99.7927 13.2689 101.756 15.2318 104.19 15.2318C106.624 15.2318 108.586 13.2689 108.586 10.8349C108.586 8.40095 106.624 6.43808 104.19 6.43808C101.756 6.43808 99.7927 8.40095 99.7927 10.8349ZM125.546 4.94629C123.269 4.94629 121.855 6.28105 121.855 8.00838C121.855 9.57868 122.719 10.4423 123.975 10.992C124.082 11.0453 124.261 11.1258 124.466 11.218L124.468 11.2186L124.468 11.2188L124.469 11.2192L124.47 11.2196L124.47 11.2197C124.869 11.3989 125.366 11.622 125.624 11.7771L125.692 11.8107C126.333 12.13 127.43 12.6763 127.43 13.6615C127.43 14.4466 126.645 15.2318 125.075 15.2318C123.504 15.2318 122.719 14.6036 122.562 14.4466L121.777 15.8599C121.794 15.8685 121.821 15.8856 121.858 15.9093L121.858 15.9094C122.157 16.1015 123.126 16.7236 125.153 16.7236C127.194 16.7236 129.157 15.7814 129.157 13.5044C129.157 11.5416 127.352 10.6779 126.331 10.2068C126.057 10.0973 125.707 9.91151 125.414 9.75581C125.286 9.68818 125.17 9.62623 125.075 9.57868C124.289 9.1861 123.661 8.71501 123.661 7.85135C123.661 7.0662 124.368 6.35956 125.703 6.35956C127.037 6.35956 127.823 6.83065 127.98 6.98768L128.451 5.57441C128.414 5.57441 128.332 5.54071 128.205 5.48892L128.204 5.4889C127.783 5.3171 126.873 4.94629 125.546 4.94629ZM18.8437 21.9056H24.9678V23.3973H20.4925V26.695H24.9678V28.1083H20.4925V33.4473H18.8437V21.9056ZM10.8351 21.827C7.45897 21.827 4.71094 24.4965 4.71094 27.7157C4.71094 31.0133 7.38045 33.6043 10.8351 33.6043C14.2113 33.6043 16.9593 30.9348 16.9593 27.7157C16.9593 24.418 14.2898 21.827 10.8351 21.827ZM10.8351 32.1125C8.40115 32.1125 6.43827 30.1496 6.43827 27.7157C6.43827 25.2817 8.40115 23.3188 10.8351 23.3188C13.2691 23.3188 15.232 25.2817 15.232 27.7157C15.232 30.1496 13.3476 32.1125 10.8351 32.1125ZM56.845 21.9056H58.4153V33.4473H57.002L50.0927 24.5751V33.4473H48.5224V21.9056H49.9356L56.845 30.8563V21.9056ZM108.979 21.9056H107.409V30.8563L100.421 21.9056H99.0861V33.4473H100.656V24.5751L107.487 33.4473H108.979V21.9056ZM68.0726 21.9056H76.3952V23.3973H73.0976V33.4473H71.4488V23.3973H68.0726V21.9056ZM85.66 21.9056H77.3374V23.3973H80.7135V33.4473H82.3624V23.3973H85.66V21.9056ZM39.9642 21.9056H46.481V23.3973H41.613V26.852H46.3239V28.2653H41.613V32.034H46.638V33.4473H39.9642V21.9056ZM67.0519 21.9056H60.5352V33.4473H67.209V32.034H62.184V28.2653H66.8949V26.852H62.184V23.3973H67.0519V21.9056ZM85.4244 27.7157C85.4244 24.4965 88.1725 21.827 91.5486 21.827C94.9248 21.827 97.5943 24.418 97.6728 27.7157C97.6728 30.9348 94.9248 33.6043 91.5486 33.6043C88.094 33.6043 85.4244 31.0133 85.4244 27.7157ZM87.1518 27.7157C87.1518 30.1496 89.1147 32.1125 91.5486 32.1125C93.9826 32.1125 95.9455 30.1496 95.9455 27.7157C95.9455 25.2817 93.9826 23.3188 91.5486 23.3188C89.1147 23.3188 87.1518 25.2817 87.1518 27.7157ZM33.9971 21.9056H30.2283V33.4473H34.1541C37.0592 33.4473 38.0798 31.7985 38.0798 30.3852C38.0798 27.9512 36.117 27.4801 35.9599 27.4801C35.9706 27.4748 35.987 27.4677 36.0083 27.4585C36.3018 27.331 37.5302 26.7977 37.5302 24.9676C37.5302 23.3188 36.431 21.9056 33.9971 21.9056ZM31.8772 26.9305V23.3973H33.7615C35.0963 23.3973 35.8814 24.0255 35.8814 25.1247C35.8814 26.3024 35.0178 26.9305 33.7615 26.9305H31.8772ZM31.8772 32.034V28.3438H34.0756C35.7244 28.3438 36.431 29.1289 36.431 30.2282C36.431 31.0918 35.9599 32.034 34.0756 32.034H31.8772ZM110.314 32.3481C110.314 31.7199 110.863 31.1703 111.491 31.1703C112.12 31.1703 112.669 31.7199 112.669 32.3481C112.669 32.9762 112.12 33.5258 111.491 33.5258C110.863 33.5258 110.314 32.9762 110.314 32.3481Z" fill="white"/>
</svg>
