<svg aria-hidden="true" viewBox="0 0 56 56" xmlns="http://www.w3.org/2000/svg">
    <path d="M27.9923 31.8727C20.0955 27.4929 15.7476 24.3578 15.7476 16.9199C15.7476 9.69704 21.5704 5.13282 27.9923 5.13282C34.4296 5.11745 40.2524 9.68167 40.2524 16.9045C40.2524 24.3578 35.8892 27.4775 27.9923 31.8727ZM27.9923 43.4907L23.3833 40.955L27.9923 38.4347L32.6014 40.955L27.9923 43.4907ZM56 28.1844L38.6085 37.697C38.6085 37.697 35.4436 35.9605 33.9995 35.1767C37.656 33.0406 46.6743 29.0911 46.6743 17.2887C46.659 7.20746 38.2091 0 27.9923 0C17.7909 0 9.34101 7.20746 9.34101 17.258C9.34101 29.0757 18.344 33.0099 22.0159 35.146C20.5564 35.9451 17.4069 37.6663 17.4069 37.6663L0 28.1844V34.7464L11.3844 40.9704L0 47.1943V53.7563L17.3761 44.2437C17.3761 44.2437 20.7561 46.0878 22.231 46.9023C18.2058 49.4226 16.3314 52.0659 16.3314 56H22.6305C22.6305 53.034 25.0272 50.6367 27.9923 50.6367C30.9575 50.6367 33.3542 53.034 33.3542 56H39.6532C39.6532 52.0505 37.7789 49.4072 33.7536 46.9023C35.2439 46.0878 38.6085 44.2437 38.6085 44.2437L55.9846 53.7563V47.1943L44.6003 40.9704L55.9846 34.7464V28.1844H56Z" fill="black"></path>
  </svg>